<?xml version="1.0" encoding="UTF-8" standalone="no"?>
<svg
   xmlns:dc="http://purl.org/dc/elements/1.1/"
   xmlns:cc="http://creativecommons.org/ns#"
   xmlns:rdf="http://www.w3.org/1999/02/22-rdf-syntax-ns#"
   xmlns:svg="http://www.w3.org/2000/svg"
   xmlns="http://www.w3.org/2000/svg"
   xmlns:sodipodi="http://sodipodi.sourceforge.net/DTD/sodipodi-0.dtd"
   xmlns:inkscape="http://www.inkscape.org/namespaces/inkscape"
   width="40.526028"
   height="56.424599"
   viewBox="0 0 10.722376 14.92882"
   version="1.1"
   id="svg8"
   inkscape:version="1.0 (4035a4fb49, 2020-05-01)"
   sodipodi:docname="beats.svg">
  <defs
     id="defs2" />
  <sodipodi:namedview
     inkscape:document-rotation="0"
     id="base"
     pagecolor="#ffffff"
     bordercolor="#666666"
     borderopacity="1.0"
     inkscape:pageopacity="0.0"
     inkscape:pageshadow="2"
     inkscape:zoom="0.98994949"
     inkscape:cx="20.263046"
     inkscape:cy="28.2123"
     inkscape:document-units="px"
     inkscape:current-layer="layer1"
     showgrid="false"
     units="px"
     inkscape:snap-perpendicular="true"
     inkscape:snap-tangential="true"
     inkscape:window-width="678"
     inkscape:window-height="824"
     inkscape:window-x="1870"
     inkscape:window-y="544"
     inkscape:window-maximized="1" />
  <metadata
     id="metadata5">
    <rdf:RDF>
      <cc:Work
         rdf:about="">
        <dc:format>image/svg+xml</dc:format>
        <dc:type
           rdf:resource="http://purl.org/dc/dcmitype/StillImage" />
        <dc:title></dc:title>
      </cc:Work>
    </rdf:RDF>
  </metadata>
  <g
     transform="translate(-89.394551,-80.224961)"
     inkscape:label="Layer 1"
     inkscape:groupmode="layer"
     id="layer1">
    <rect
       style="fill:#f90007;stroke-width:0.26458"
       class="cls-17"
       x="90.122147"
       y="81.84684"
       width="9.987895"
       height="8.6623497"
       id="rect278" />
    <path
       style="fill:#ffffff;stroke:#ffffff;stroke-width:0.26458;stroke-miterlimit:10"
       class="cls-18"
       d="m 94.045863,80.928744 h 0.732887 c 0.26458,0 0.52916,0.01852 0.777865,0.04233 a 6.6991656,6.6991656 0 0 1 0.717012,0.111123 1.825602,1.825602 0 0 1 0.568847,0.222247 2.7278198,2.7278198 0 0 1 0.881051,0.859885 2.38122,2.38122 0 0 1 0.362475,1.344067 2.5611344,2.5611344 0 0 1 -0.407453,1.457836 2.38122,2.38122 0 0 1 -1.161506,0.910155 v 0.0291 a 2.4420734,2.4420734 0 0 1 1.494877,0.888989 2.659029,2.659029 0 0 1 0.52916,1.65627 3.1035234,3.1035234 0 0 1 -0.209019,1.124465 2.8151312,2.8151312 0 0 1 -0.613825,0.971009 3.0506074,3.0506074 0 0 1 -1.005404,0.67997 3.4712896,3.4712896 0 0 1 -1.383754,0.26458 H 90.209453 V 80.928744 Z m 0.39687,4.542838 q 1.198548,0 1.722416,-0.423328 a 1.5239808,1.5239808 0 0 0 0.52916,-1.264692 1.878518,1.878518 0 0 0 -0.177268,-0.886343 1.2858588,1.2858588 0 0 0 -0.502702,-0.507994 1.9526004,1.9526004 0 0 0 -0.717012,-0.227538 6.9081838,6.9081838 0 0 0 -0.854594,-0.03704 h -2.823068 v 3.360166 z m 0.709075,4.836523 a 2.0160996,2.0160996 0 0 0 1.457836,-0.502702 1.8361852,1.8361852 0 0 0 0.52916,-1.389045 1.746228,1.746228 0 0 0 -0.190498,-0.859885 1.494877,1.494877 0 0 0 -0.510639,-0.52916 2.1351606,2.1351606 0 0 0 -0.732887,-0.280455 4.3232372,4.3232372 0 0 0 -0.857239,-0.08202 h -3.227876 v 3.643267 z"
       id="path280" />
    <polyline
       transform="matrix(0.26458,0,0,0.26458,-19.855823,73.922665)"
       style="fill:none;stroke:#f90007;stroke-miterlimit:10"
       class="cls-19"
       points="453.42 68.76 413.42 68.76 413.42 24.32 453.42 24.32"
       id="polyline282" />
    <path
       style="fill:#f90007;stroke-width:0.26458"
       class="cls-17"
       d="m 89.526837,92.750178 h 1.211776 a 0.9075094,0.9075094 0 0 1 0.52916,0.142873 0.5635554,0.5635554 0 0 1 0.111124,0.74347 0.6164714,0.6164714 0 0 1 -0.26458,0.195789 v 0 a 0.5582638,0.5582638 0 0 1 0.349246,0.206373 0.6455752,0.6455752 0 0 1 0.119061,0.399516 0.634992,0.634992 0 0 1 -0.05292,0.26458 0.52916,0.52916 0 0 1 -0.16404,0.209018 0.846656,0.846656 0 0 1 -0.285746,0.137581 1.468419,1.468419 0 0 1 -0.412745,0.05027 h -1.142986 z m 0.436557,0.981592 h 0.709074 a 0.4127448,0.4127448 0 0 0 0.26458,-0.08202 0.2963296,0.2963296 0 0 0 0.103187,-0.243413 0.3016212,0.3016212 0 0 0 -0.0926,-0.248706 0.4471402,0.4471402 0 0 0 -0.26458,-0.07144 H 89.97398 Z m 0,1.029216 h 0.775219 a 0.4603692,0.4603692 0 0 0 0.309559,-0.09525 0.3545372,0.3545372 0 0 0 0.108478,-0.26458 0.3333708,0.3333708 0 0 0 -0.108478,-0.26458 0.4603692,0.4603692 0 0 0 -0.309559,-0.105832 h -0.767282 z"
       id="path284" />
    <path
       style="fill:#f90007;stroke-width:0.26458"
       class="cls-17"
       d="m 91.976848,92.750178 h 1.788561 v 0.354537 h -1.352004 v 0.613826 h 1.251463 v 0.336017 h -1.251463 v 0.687908 h 1.378462 v 0.346599 h -1.815019 z"
       id="path286" />
    <path
       style="fill:#f90007;stroke-width:0.26458"
       class="cls-17"
       d="m 94.834312,92.750178 h 0.463015 l 0.957779,2.338887 h -0.46566 L 95.553969,94.467302 H 94.56444 l -0.235476,0.621763 h -0.44714 z m -0.153457,1.412857 H 95.4402 l -0.373058,-1.008049 v 0 z"
       id="path288" />
    <path
       style="fill:#f90007;stroke-width:0.26458"
       class="cls-17"
       d="m 95.934965,92.750178 h 2.010808 v 0.354537 h -0.79374 v 1.98435 h -0.436557 v -1.98435 h -0.79374 z"
       id="path290" />
    <path
       style="fill:#f90007;stroke-width:0.26458"
       class="cls-17"
       d="m 98.519911,94.313846 a 0.476244,0.476244 0 0 0 0.05027,0.230185 0.4048074,0.4048074 0 0 0 0.134936,0.156102 0.5662012,0.5662012 0 0 0 0.198435,0.08996 1.05832,1.05832 0 0 0 0.246059,0.02646 0.8175522,0.8175522 0 0 0 0.243414,-0.0291 0.476244,0.476244 0 0 0 0.16404,-0.08202 0.26458,0.26458 0 0 0 0.08996,-0.113769 0.3201418,0.3201418 0 0 0 0.0291,-0.129644 0.26458,0.26458 0 0 0 -0.06615,-0.198435 0.383641,0.383641 0 0 0 -0.140228,-0.08996 2.592884,2.592884 0 0 0 -0.306913,-0.08731 l -0.433905,-0.10584 a 0.9233842,0.9233842 0 0 1 -0.26458,-0.105832 0.5979508,0.5979508 0 0 1 -0.166685,-0.142873 0.489473,0.489473 0 0 1 -0.08996,-0.166685 0.5926592,0.5926592 0 0 1 -0.02646,-0.179915 0.5847218,0.5847218 0 0 1 0.07937,-0.309558 0.7223034,0.7223034 0 0 1 0.206372,-0.21431 0.9868834,0.9868834 0 0 1 0.293684,-0.126999 1.3811076,1.3811076 0 0 1 0.330725,-0.03969 1.3520038,1.3520038 0 0 1 0.36512,0.04763 0.9233842,0.9233842 0 0 1 0.304267,0.142873 0.6799706,0.6799706 0 0 1 0.206373,0.235476 0.6693874,0.6693874 0 0 1 0.07673,0.322788 h -0.433917 a 0.39687,0.39687 0 0 0 -0.16404,-0.320142 0.6720332,0.6720332 0 0 0 -0.373057,-0.09525 0.79374,0.79374 0 0 0 -0.156103,0.01588 0.4974104,0.4974104 0 0 0 -0.145519,0.05027 0.291038,0.291038 0 0 0 -0.111123,0.0926 0.2460594,0.2460594 0 0 0 -0.04233,0.148165 0.2407678,0.2407678 0 0 0 0.08202,0.195789 0.5132852,0.5132852 0 0 0 0.211664,0.105832 l 0.111123,0.0291 0.21431,0.05292 0.23283,0.04762 0.161394,0.04233 a 0.7249492,0.7249492 0 0 1 0.21431,0.09789 0.7090744,0.7090744 0 0 1 0.150811,0.142873 0.5635554,0.5635554 0 0 1 0.08996,0.171977 0.6693874,0.6693874 0 0 1 -0.0556,0.52916 0.7170118,0.7170118 0 0 1 -0.224892,0.230185 1.05832,1.05832 0 0 1 -0.317496,0.129644 1.6880204,1.6880204 0 0 1 -0.76199,0 0.9736544,0.9736544 0 0 1 -0.325434,-0.153457 0.7302408,0.7302408 0 0 1 -0.222247,-0.26458 0.8413644,0.8413644 0 0 1 -0.08731,-0.378349 z"
       id="path292" />
  </g>
</svg>
