<?xml version="1.0" encoding="UTF-8" standalone="no"?>
<svg
   xmlns:dc="http://purl.org/dc/elements/1.1/"
   xmlns:cc="http://creativecommons.org/ns#"
   xmlns:rdf="http://www.w3.org/1999/02/22-rdf-syntax-ns#"
   xmlns:svg="http://www.w3.org/2000/svg"
   xmlns="http://www.w3.org/2000/svg"
   xmlns:sodipodi="http://sodipodi.sourceforge.net/DTD/sodipodi-0.dtd"
   xmlns:inkscape="http://www.inkscape.org/namespaces/inkscape"
   inkscape:version="1.0 (4035a4fb49, 2020-05-01)"
   sodipodi:docname="hero-set-ablaze-text.svg"
   version="1.1"
   viewBox="0 0 575.5 101.9"
   data-name="Layer 1"
   id="Layer_1">
  <metadata
     id="metadata33">
    <rdf:RDF>
      <cc:Work
         rdf:about="">
        <dc:format>image/svg+xml</dc:format>
        <dc:type
           rdf:resource="http://purl.org/dc/dcmitype/StillImage" />
      </cc:Work>
    </rdf:RDF>
  </metadata>
  <sodipodi:namedview
     inkscape:current-layer="Layer_1"
     inkscape:window-maximized="0"
     inkscape:window-y="0"
     inkscape:window-x="0"
     inkscape:cy="48.200001"
     inkscape:cx="253.79217"
     inkscape:zoom="2.5178082"
     showgrid="false"
     id="namedview31"
     inkscape:window-height="1728"
     inkscape:window-width="2868"
     inkscape:pageshadow="2"
     inkscape:pageopacity="0"
     guidetolerance="10"
     gridtolerance="10"
     objecttolerance="10"
     borderopacity="1"
     bordercolor="#666666"
     pagecolor="#ffffff" />
  <defs
     id="defs4">
    <style
       id="style2">.cls-1{fill:none;}.cls-2,.cls-3{fill:red;}.cls-3{isolation:isolate;font-size:100px;font-family:Roobert;font-weight:700;letter-spacing:-0.03em;}.cls-4{letter-spacing:-0.04em;}.cls-5{letter-spacing:-0.03em;}.cls-6{letter-spacing:-0.03em;}</style>
  </defs>
  <rect
     id="rect6"
     height="94.5"
     width="473"
     y="7.3999996"
     x="102.5"
     class="cls-1" />
  <polygon
     transform="translate(0,-5.5)"
     id="polygon8"
     points="2,7.5 2,93.4 80.1,93.4 80.1,95.4 0,95.4 0,5.5 80.1,5.5 80.1,7.5 "
     class="cls-2" />
  <path
     id="path10"
     d="m 56.8,61.3 c 0,4.1 -1.2,7.4 -3.6,9.7 -2.4,2.3 -5.9,3.5 -10.2,3.5 H 17.6 V 49.1 h 23 a 31.79,31.79 0 0 1 6.2,0.6 13.62,13.62 0 0 1 5.1,2 10.39,10.39 0 0 1 3.5,3.7 10.54,10.54 0 0 1 1.4,5.9 z"
     class="cls-2" />
  <path
     id="path12"
     d="m 53.5,26.6 q 0,5.85 -3.6,8.7 c -2.4,2 -6.6,2.9 -12.3,2.9 h -20 V 15.1 h 20 a 41.73,41.73 0 0 1 6.3,0.4 12.81,12.81 0 0 1 5,1.6 8.32,8.32 0 0 1 3.3,3.4 11.53,11.53 0 0 1 1.3,6.1 z"
     class="cls-2" />
  <path
     id="path14"
     d="M 80.1,12.1 V 76.9 H 63.8 a 21,21 0 0 0 3.9,-6.6 24.06,24.06 0 0 0 1.6,-8.8 21,21 0 0 0 -4.1,-13 18.83,18.83 0 0 0 -9.3,-6.4 18,18 0 0 0 6.9,-6.2 A 20.57,20.57 0 0 0 66,24.5 18.86,18.86 0 0 0 63.1,13.9 13.3,13.3 0 0 0 61.71,12.01 l 18.4,0.1 z"
     class="cls-2" />
  <rect
     id="rect16"
     height="91"
     width="633"
     y="7.1999998"
     x="97"
     class="cls-1" />
  <text
     y="79.5"
     x="97"
     id="text28"
     class="cls-3">S<tspan
   id="tspan18"
   y="79.5"
   x="152.3"
   class="cls-4">e</tspan><tspan
   id="tspan20"
   y="79.5"
   x="203.2"
   class="cls-5">t Ab</tspan><tspan
   id="tspan22"
   y="79.5"
   x="382.10001"
   class="cls-6">la</tspan><tspan
   id="tspan24"
   y="79.5"
   x="453.60001"
   class="cls-4">z</tspan><tspan
   id="tspan26"
   y="79.5"
   x="499.5"
   class="cls-5">e</tspan></text>
</svg>
