<svg id="Layer_1" data-name="Layer 1" xmlns="http://www.w3.org/2000/svg" viewBox="0 0 49.99 50"><defs><style>.cls-1{fill:red;}</style></defs><path class="cls-1" d="M49.86,14.7A18,18,0,0,0,48.7,8.63a12.81,12.81,0,0,0-7.31-7.31A18.08,18.08,0,0,0,35.32.16C32.64,0,31.79,0,25,0S17.37,0,14.7.15A18,18,0,0,0,8.63,1.31,12.11,12.11,0,0,0,4.2,4.2,12.22,12.22,0,0,0,1.32,8.62,18.08,18.08,0,0,0,.16,14.69C0,17.37,0,18.22,0,25s0,7.64.15,10.31a18,18,0,0,0,1.16,6.07A12.24,12.24,0,0,0,4.2,45.81a12.22,12.22,0,0,0,4.42,2.88,18.08,18.08,0,0,0,6.07,1.16C17.36,50,18.21,50,25,50s7.63,0,10.3-.15a18,18,0,0,0,6.07-1.16,12.77,12.77,0,0,0,7.31-7.31,18.08,18.08,0,0,0,1.16-6.07C50,32.64,50,31.79,50,25S50,17.37,49.86,14.7Zm-4.5,20.41a13.77,13.77,0,0,1-.86,4.64,8.29,8.29,0,0,1-4.75,4.75,13.83,13.83,0,0,1-4.64.86c-2.63.12-3.42.15-10.1.15s-7.47,0-10.1-.15a13.7,13.7,0,0,1-4.63-.86A7.65,7.65,0,0,1,7.4,42.64a7.81,7.81,0,0,1-1.86-2.88,13.83,13.83,0,0,1-.86-4.64c-.12-2.63-.15-3.42-.15-10.1s0-7.47.15-10.1a13.7,13.7,0,0,1,.86-4.63A7.56,7.56,0,0,1,7.41,7.41a7.73,7.73,0,0,1,2.88-1.86,13.76,13.76,0,0,1,4.63-.86c2.64-.12,3.43-.15,10.1-.15s7.48,0,10.1.15a13.77,13.77,0,0,1,4.64.86,8.15,8.15,0,0,1,4.74,4.74,13.76,13.76,0,0,1,.86,4.63c.12,2.64.15,3.43.15,10.1S45.48,32.48,45.36,35.11Z"/><path class="cls-1" d="M25,12.16A12.85,12.85,0,1,0,37.85,25,12.84,12.84,0,0,0,25,12.16Zm0,21.18A8.34,8.34,0,1,1,33.34,25,8.33,8.33,0,0,1,25,33.34Z"/><path class="cls-1" d="M41.36,11.65a3,3,0,1,1-3-3A3,3,0,0,1,41.36,11.65Z"/></svg>