<?xml version="1.0" encoding="UTF-8" standalone="no"?>
<svg
   xmlns:dc="http://purl.org/dc/elements/1.1/"
   xmlns:cc="http://creativecommons.org/ns#"
   xmlns:rdf="http://www.w3.org/1999/02/22-rdf-syntax-ns#"
   xmlns:svg="http://www.w3.org/2000/svg"
   xmlns="http://www.w3.org/2000/svg"
   xmlns:sodipodi="http://sodipodi.sourceforge.net/DTD/sodipodi-0.dtd"
   xmlns:inkscape="http://www.inkscape.org/namespaces/inkscape"
   width="633.77991"
   height="113.35014"
   viewBox="0 0 167.68549 29.990179"
   version="1.1"
   id="svg8"
   inkscape:version="1.0 (4035a4fb49, 2020-05-01)"
   sodipodi:docname="torcher.svg">
  <defs
     id="defs2" />
  <sodipodi:namedview
     inkscape:document-rotation="0"
     id="base"
     pagecolor="#ffffff"
     bordercolor="#666666"
     borderopacity="1.0"
     inkscape:pageopacity="0.0"
     inkscape:pageshadow="2"
     inkscape:zoom="0.98994949"
     inkscape:cx="168.94"
     inkscape:cy="31.51973"
     inkscape:document-units="px"
     inkscape:current-layer="layer1"
     showgrid="false"
     units="px"
     inkscape:snap-perpendicular="true"
     inkscape:snap-tangential="true"
     inkscape:window-width="1428"
     inkscape:window-height="1728"
     inkscape:window-x="4000"
     inkscape:window-y="0"
     inkscape:window-maximized="1" />
  <metadata
     id="metadata5">
    <rdf:RDF>
      <cc:Work
         rdf:about="">
        <dc:format>image/svg+xml</dc:format>
        <dc:type
           rdf:resource="http://purl.org/dc/dcmitype/StillImage" />
        <dc:title></dc:title>
      </cc:Work>
    </rdf:RDF>
  </metadata>
  <g
     transform="translate(-50.057602,-79.349881)"
     inkscape:label="Layer 1"
     inkscape:groupmode="layer"
     id="layer1">
    <path
       style="fill:#ff0000;stroke-width:0.26458"
       class="cls-1"
       d="m 196.07666,93.91501 c -0.40217,-4.460819 -3.72264,-7.606675 -8.67294,-8.20198 -4.95029,-0.595305 -9.80798,0.650867 -13.35864,3.43954 -2.93684,2.312429 -4.92119,6.106506 -5.30748,10.146643 a 12.279158,12.279158 0 0 0 0,1.984347 c 0.30163,4.58517 3.65385,7.49026 9.19945,7.9718 q 0.98424,0.082 1.94996,0.0847 c 3.89991,0 7.51407,-1.02657 10.12812,-2.91038 a 14.390506,14.390506 0 0 0 4.06395,-4.55607 l 0.32014,-0.55297 -7.89771,-1.738292 -0.17463,0.288392 a 6.429294,6.429294 0 0 1 -1.21706,1.48429 5.6673036,5.6673036 0 0 1 -3.94754,1.4208 c -1.46842,0 -2.42884,-0.40216 -2.94477,-1.23559 -0.51593,-0.83343 -0.62706,-1.939372 -0.32544,-3.38927 l 17.86974,-0.08467 v 0 a 14.078302,14.078302 0 0 0 0.31485,-4.15126 z m -17.22681,1.349358 a 6.3790238,6.3790238 0 0 1 1.52927,-2.002871 5.6540746,5.6540746 0 0 1 3.94489,-1.42344 c 1.45784,0 2.42091,0.404807 2.93949,1.225005 a 3.5268514,3.5268514 0 0 1 0.44185,1.70125 l 0.0212,0.500056 h 0.0291 z"
       id="path6" />
    <path
       style="fill:#ff0000;stroke-width:0.26458"
       class="cls-1"
       d="m 169.98907,91.822182 a 13.845471,13.845471 0 0 1 -0.54504,3.88668 l -3.68295,13.575598 h -8.39512 l 3.5242,-12.27651 a 9.3608404,9.3608404 0 0 0 0.3466,-1.571605 c 0.0635,-3.582413 -2.66167,-3.405145 -3.2411,-3.43954 a 0.5714928,0.5714928 0 0 0 -0.0688,0 c -2.84424,-0.05556 -4.37087,1.513398 -5.23869,2.873339 a 8.8422636,8.8422636 0 0 0 -0.94984,2.16691 l -0.0212,0.06614 c -0.0926,0.26458 -0.26458,0.907509 -0.39687,1.3229 -0.0635,0.216956 -0.11112,0.386287 -0.13229,0.44714 l -2.91038,10.427096 -9.18357,-0.0212 8.6306,-29.810227 8.92693,0.01852 -2.8945,9.974666 c 1.30702,-1.539856 3.75174,-3.722641 7.89242,-3.767619 h 0.0503 c 0.45507,0 1.45519,0.06085 2.2013,0.08731 a 6.7917686,6.7917686 0 0 1 3.9687,1.58748 5.4741602,5.4741602 0 0 1 2.11929,4.452881 z"
       id="path8" />
    <path
       style="fill:#ff0000;stroke-width:0.26458"
       class="cls-1"
       d="m 133.62784,99.500294 7.89507,1.740936 -0.3175,0.55562 a 14.382569,14.382569 0 0 1 -4.06395,4.55342 c -2.61405,1.88646 -6.22821,2.91038 -10.12812,2.91038 q -0.96307,0 -1.94995,-0.082 c -5.55618,-0.48418 -8.89783,-3.38927 -9.19945,-7.97444 a 12.244762,12.244762 0 0 1 0,-1.981705 c 0.38629,-4.040137 2.36799,-7.834214 5.30747,-10.146643 3.54802,-2.799256 8.41629,-4.053365 13.35865,-3.43954 4.94235,0.613826 8.27077,3.75439 8.67293,8.20198 l 0.0397,0.460369 -8.38983,0.888989 -0.0212,-0.500056 A 3.5242056,3.5242056 0 0 0 134.38981,92.989 c -0.52916,-0.822844 -1.48165,-1.225005 -2.93948,-1.225005 a 5.6540746,5.6540746 0 0 0 -3.94489,1.42344 c -1.10065,0.944551 -1.85206,2.328304 -2.34153,4.23328 -0.47889,1.762103 -0.42333,3.119395 0.17197,4.037495 0.51593,0.83342 1.47636,1.23558 2.94478,1.23558 a 5.6434914,5.6434914 0 0 0 3.94489,-1.42079 6.3737322,6.3737322 0 0 0 1.21971,-1.484294 z"
       id="path10" />
    <path
       style="fill:#ff0000;stroke-width:0.26458"
       class="cls-1"
       d="m 103.72501,109.26065 -9.183573,-0.0185 6.614503,-23.56614 h 9.05922 l -1.00541,3.762327 c 1.30703,-1.539855 3.75175,-3.719994 7.89507,-3.764973 h 0.045 c 0.26458,0 2.38122,0 2.7093,0.01587 0,0 -3.17496,9.78946 -3.17496,9.712732 0.0609,-3.585059 -2.66697,-3.405145 -3.2464,-3.452769 h -0.0661 c -2.84688,-0.05556 -4.37086,1.516043 -5.23868,2.873338 a 8.9666162,8.9666162 0 0 0 -0.94984,2.169556 l -0.0212,0.06614 c -0.0926,0.26458 -0.26458,0.904864 -0.39687,1.3229 -0.0635,0.216956 -0.11113,0.386287 -0.13229,0.447141 z"
       id="path12" />
    <path
       style="fill:#ff0000;stroke-width:0.26458"
       class="cls-1"
       d="m 96.356456,89.422442 c -1.103298,-1.349358 -2.823068,-3.024149 -6.92935,-3.685599 -4.939709,-0.603243 -9.807981,0.650866 -13.355998,3.43954 -2.926255,2.304491 -4.907959,6.085339 -5.2916,10.109601 -0.433912,5.027016 2.6458,9.244426 9.151822,9.876776 4.000449,0.33337 8.940158,-0.51329 12.067494,-2.81514 A 15.13133,15.13133 0 0 0 97.97304,96.3465 c 0.391578,-2.571717 -0.179914,-5.032311 -1.616584,-6.924058 z m -13.19725,13.440668 c -1.508106,0 -2.502927,-0.41804 -3.04267,-1.28322 -0.61118,-0.94984 -0.672033,-2.333593 -0.18256,-4.122154 0.484181,-1.93408 1.262046,-3.338999 2.38122,-4.302071 a 5.794302,5.794302 0 0 1 4.029553,-1.439315 c 1.500169,0 2.494989,0.418037 3.034733,1.27263 0.500056,0.904864 0.590013,2.6458 0.166685,4.119511 -0.455078,1.875872 -1.248818,3.325769 -2.357408,4.312659 a 5.7837188,5.7837188 0 0 1 -4.029553,1.44196 z"
       id="path14" />
    <path
       style="fill:#ff0000;stroke-width:0.26458"
       class="cls-1"
       d="m 61.902849,109.21832 h -9.239134 l 6.87908,-23.661392 h -9.485193 l 1.701249,-6.207047 27.714755,0.05292 -1.502814,6.185881 h -9.456089 z"
       id="path16" />
    <path
       style="fill:#ff0000;stroke-width:0.26458"
       class="cls-1"
       d="m 201.79688,109.27653 -9.18358,-0.0185 6.6145,-23.566145 h 9.05922 l -1.0054,3.762327 c 1.30702,-1.539855 3.75439,-3.72264 7.89507,-3.767619 h 0.0476 c 0.26458,0 2.19601,0 2.5188,0.01588 0,0 -2.98181,9.78946 -2.97917,9.712732 0.0609,-3.582414 -2.66696,-3.405145 -3.24375,-3.43954 h -0.0688 c -2.84688,-0.05556 -4.37086,1.513397 -5.23868,2.873338 a 8.9454498,8.9454498 0 0 0 -0.95249,2.158973 l -0.0212,0.06614 c -0.0926,0.26458 -0.26458,0.90751 -0.39687,1.3229 -0.0635,0.216956 -0.11112,0.386287 -0.12964,0.44714 z"
       id="path18" />
  </g>
</svg>
