<?xml version="1.0" encoding="utf-8"?>
<!-- Generator: Adobe Illustrator 24.1.0, SVG Export Plug-In . SVG Version: 6.00 Build 0)  -->
<svg version="1.1" id="Layer_1" xmlns="http://www.w3.org/2000/svg" xmlns:xlink="http://www.w3.org/1999/xlink" x="0px" y="0px"
	 viewBox="0 0 700 140" style="enable-background:new 0 0 700 140;" xml:space="preserve">
<style type="text/css">
	.st0{fill:#FF0000;}
	.st1{fill:#FFFFFF;}
</style>
<g id="XMLID_1_">
	<g>
		<path class="st0" d="M648.1,11c4.8,0,9.5,0.3,13.6,1c5.8,1,10.8,2.6,15.1,4.6c5.9,2.8,10.8,6.7,14.5,11.8c1.8,2.5,2.6,3.8,4.1,6.7
			c3.6,7.4,5.2,16,4.5,25.4c-0.4,5.5-1.8,13.4-4.4,23.5l-0.5,1.8h-89.3c-1.5,9.7,0.4,16.5,5.9,20.4c3.8,2.6,8.6,3.9,14.6,3.9
			c6.7,0,12.5-1.7,17.1-4.9c2.6-1.9,5.1-4.3,7.8-7.6l0.7-0.9h39.6l-1.2,3.2c-2.8,7.5-8.7,14.7-17.9,22.1
			c-14.2,11.7-31.8,17.6-52.6,17.6c-17.2,0-31.4-5.1-42.3-15c-11.2-10.3-14-26.2-8.6-49c3.4-14.4,9.3-26.7,17.4-36.6"/>
		<path class="st1" d="M663.1,60.3c0.7-6.3-0.5-11.2-3.6-14.5c-3.5-3.6-8.6-5.5-15.1-5.5c-7.3,0-13.4,2-18.5,6.1
			c-4.4,3.7-7.7,8.3-10.3,14h47.5V60.3z"/>
		<path class="st0" d="M586.2,39.1L573.1,39c-7.2,0.4-14,2-19.7,4.6c-5.1,2.4-8.9,5.5-10.8,8.8c-3.1,5.4-5.4,10.6-7.2,16.6
			c-0.9,2.7-1.6,5.3-2.3,8.1l-0.5,2.1L516.6,140l-42.9-0.1l34.2-129h42.2l-2.8,10.6c2.5-2.1,4.5-3.2,5.5-3.8
			C562.1,13,572,11,584.7,11l12.5-0.1l51,0.1"/>
		<path class="st0" d="M588.1,36.7c0.1-0.1,0.2-0.2,0.3-0.4l0.1-0.1c0,0,0.1-0.1,0.2-0.2c0.1-0.1,0.3-0.3,0.6-0.6l0.4-0.5
			c0.2-0.2,0.4-0.4,0.6-0.6c0.2-0.2,0.4-0.4,0.6-0.6c1.6-1.7,3.9-3.9,6.4-6c6.1-5.1,12.2-8.7,17.8-11.2c2.4-1,5.7-2.2,9.4-3.1"/>
		<path class="st0" d="M586.1,39.1c0.7-0.8,1.4-1.7,2-2.4"/>
		<path class="st0" d="M501.8,10.9l-33.4,128.9h-41.8l1.5-5.9c-9.1,4.6-24.8,6.9-38.2,5.4c-13.4-1.7-22.6-6.8-26.9-15.2
			c-5.4-10.7-3.5-23.9,0.8-40.5L382.6,11h42.1l-6.8,25.3l-12.5,48.7c-1.6,6-2,10.9-1.1,14.2c1.5,5,6.5,7.4,15.3,7.4
			c6.6,0,12-0.9,16.2-2.7l23.8-93H501.8z"/>
		<path class="st0" d="M350.3,0.1l-3.1,10.5L307.1,11C324.6,10.6,339.3,7.1,350.3,0.1z"/>
		<path class="st0" d="M378.3,11l-7.4,27.5H370c-7.2,0.3-14,1.9-19.6,4.6c-5.1,2.4-8.9,5.5-11.1,8.8c-3.1,5.4-5.4,10.5-7.2,16.5
			c-0.7,2.3-1.3,4.7-1.9,7.2l-0.8,2.9c-0.7,2.6-1.4,5.6-1.6,6.3v0.1l-0.1,0.3c-1.5,5.8-1.8,10.7-1,13.7c1.5,5,6.5,7.5,15.4,7.5
			c6.6,0,13.3-2.2,18-4.5l-8.2,31.1c-7.1,4-19.2,6.5-31.2,6.5c-2.9,0-5.9-0.2-8.7-0.5c-13.2-1.7-22.4-6.9-26.7-15.2
			c-5.4-10.7-3.5-23.9,0.8-40.5L298.8,39l8.2-28c11-0.1,31.4-2.9,43.3-11l-6.2,21.1c2.4-2,4.3-3.1,5.3-3.6
			C359,12.9,365.6,11.5,378.3,11z"/>
		<line class="st0" x1="305.5" y1="16.3" x2="307" y2="11"/>
		<path class="st0" d="M202.4,105.4"/>
		<g>
			<path class="st0" d="M216.8,51.6"/>
		</g>
		<path class="st0" d="M162.5,11"/>
		<path class="st0" d="M68.1,0.4l-3,10.8l-16.2,0.1l-24.9,0.2C41.5,11,57.9,7.1,68.1,0.4z"/>
		<path class="st0" d="M217.9,47.2l9.3-36.4h42.1l-3,10.7c2.4-2.1,4.5-3.2,5.4-3.7c9-4.4,21.9-6.8,35.5-6.8l-8.2,28l-6.8,0
			c-7.2,0.3-14,1.9-19.6,4.6c-5.1,2.3-8.9,5.4-10.8,8.8c-3.1,5.4-5.4,10.6-7.2,16.6c-0.7,2.3-1.3,4.7-1.9,7.2
			c-0.2,0.9-0.5,1.9-0.8,2.9l-15.4,60.9l-43.5-0.1l8.8-33.3c-3.9,5.6-8.2,9.9-13.5,14.8C175,132.8,154.2,140,133.6,140
			c-22.5,0-38-6.4-46.3-19.3c-3.3-5.2-6.1-13.1-7.3-19.2c-1.3-8.1-0.7-16.9,1.5-26.4c2.9-13.4,9.2-25.5,18.3-36.3H87.7
			c-7.2,0.3-14,1.9-19.6,4.6c-5.1,2.4-8.9,5.5-11.1,8.8c-3.1,5.4-5.4,10.5-7.2,16.5c-0.7,2.3-1.3,4.7-2,7.2l-0.8,2.9
			c-0.7,2.6-1.4,5.6-1.6,6.4v0.1l-0.1,0.3c-1.5,5.8-1.8,10.7-1,13.7c1.5,5,6.5,7.4,15.4,7.4c6.6,0,15.4-3.3,20.2-5.6l-8.3,30.6
			c-7.7,5.5-18.4,8.1-33.2,8.1c-2.9,0-5.9-0.2-8.7-0.5c-13.2-1.7-22.4-6.8-26.7-15.2c-5.1-10.8-3.2-23.9,1-40.6l19.8-71.9l24.9-0.1
			L65,11.2l0,0l0,0l-2.9,10.3c2.4-2,4.3-3.1,5.3-3.6c9.4-4.7,19.2-6.5,31.9-6.5h14.5l48.8-0.3c22.4,0,40,4.8,48.8,20.3
			C215.3,37.8,217.9,47.2,217.9,47.2z"/>
		<polygon class="st0" points="65,11.1 65,11.2 48.8,11.2 		"/>
		<path class="st1" d="M175.6,73c1-4.5,1.6-8.7,1.6-12.4c0-5-0.9-9.1-2.7-12.3c-3.2-5.5-8.9-8.2-17.3-8.2c-8.8,0-16,2.8-22,8.7
			c-6,5.7-10.3,14-12.8,25.3c-2.7,10.6-2.3,19,1.2,24.9c3.2,5.6,8.9,8.2,17.3,8.2c8.8,0,16-2.8,22-8.7
			C168.8,92.6,173.1,84.1,175.6,73z"/>
	</g>
</g>
<path class="st0" d="M588.7,11.1c15.4-0.4,34.1-4.4,44.2-11.1l-3,11"/>
<path class="st0" d="M288.4,42.8"/>
</svg>
