<?xml version="1.0" encoding="UTF-8" standalone="no"?>
<svg
   xmlns:dc="http://purl.org/dc/elements/1.1/"
   xmlns:cc="http://creativecommons.org/ns#"
   xmlns:rdf="http://www.w3.org/1999/02/22-rdf-syntax-ns#"
   xmlns:svg="http://www.w3.org/2000/svg"
   xmlns="http://www.w3.org/2000/svg"
   xmlns:sodipodi="http://sodipodi.sourceforge.net/DTD/sodipodi-0.dtd"
   xmlns:inkscape="http://www.inkscape.org/namespaces/inkscape"
   inkscape:version="1.0 (4035a4fb49, 2020-05-01)"
   sodipodi:docname="logo.svg"
   version="1.1"
   viewBox="0 0 842.34634 199.99999"
   data-name="Layer 2"
   id="Layer_2">
  <metadata
     id="metadata27">
    <rdf:RDF>
      <cc:Work
         rdf:about="">
        <dc:format>image/svg+xml</dc:format>
        <dc:type
           rdf:resource="http://purl.org/dc/dcmitype/StillImage" />
      </cc:Work>
    </rdf:RDF>
  </metadata>
  <sodipodi:namedview
     inkscape:current-layer="Layer_2"
     inkscape:window-maximized="0"
     inkscape:window-y="630"
     inkscape:window-x="0"
     inkscape:cy="101.385"
     inkscape:cx="281.10447"
     inkscape:zoom="0.71080391"
     showgrid="false"
     id="namedview25"
     inkscape:window-height="738"
     inkscape:window-width="1528"
     inkscape:pageshadow="2"
     inkscape:pageopacity="0"
     guidetolerance="10"
     gridtolerance="10"
     objecttolerance="10"
     borderopacity="1"
     bordercolor="#666666"
     pagecolor="#ffffff" />
  <defs
     id="defs4">
    <style
       id="style2">
			.cls-1 {
				fill: red;
			}
		</style>
  </defs>
  <path
     id="path6"
     d="m 760.4563,107.09 c -1.52,-16.86 -14.07,-28.75 -32.78,-31 -18.71,-2.25 -37.07,2.46 -50.49,13 -11.1,8.74 -18.6,23.08 -20.06,38.35 a 46.41,46.41 0 0 0 0,7.5 c 1.14,17.33 13.81,28.31 34.77,30.13 q 3.72,0.31 7.37,0.32 c 14.74,0 28.4,-3.88 38.28,-11 a 54.39,54.39 0 0 0 15.36,-17.22 l 1.21,-2.09 -29.85,-6.57 -0.66,1.09 a 24.3,24.3 0 0 1 -4.6,5.61 21.42,21.42 0 0 1 -14.92,5.37 c -5.55,0 -9.18,-1.52 -11.13,-4.67 -1.95,-3.15 -2.37,-7.33 -1.23,-12.81 l 67.54,-0.32 v 0 a 53.21,53.21 0 0 0 1.19,-15.69 z m -65.11,5.1 a 24.11,24.11 0 0 1 5.78,-7.57 21.37,21.37 0 0 1 14.91,-5.38 c 5.51,0 9.15,1.53 11.11,4.63 a 13.33,13.33 0 0 1 1.67,6.43 l 0.08,1.89 h 0.11 z"
     class="cls-1" />
  <path
     id="path8"
     d="m 661.8563,99.18 a 52.33,52.33 0 0 1 -2.06,14.69 l -13.92,51.31 h -31.73 l 13.32,-46.4 a 35.38,35.38 0 0 0 1.31,-5.94 c 0.24,-13.54 -10.06,-12.87 -12.25,-13 a 2.16,2.16 0 0 0 -0.26,0 c -10.75,-0.21 -16.52,5.72 -19.8,10.86 a 33.42,33.42 0 0 0 -3.59,8.19 l -0.08,0.25 c -0.35,1 -1,3.43 -1.5,5 -0.24,0.82 -0.42,1.46 -0.5,1.69 l -11,39.41 -34.71,-0.08 32.62,-112.67 33.74,0.07 -10.94,37.7 c 4.94,-5.82 14.18,-14.07 29.83,-14.24 h 0.19 c 1.72,0 5.5,0.23 8.32,0.33 a 25.67,25.67 0 0 1 15,6 20.69,20.69 0 0 1 8.01,16.83 z"
     class="cls-1" />
  <path
     id="path10"
     d="m 524.4263,128.2 29.84,6.58 -1.2,2.1 a 54.36,54.36 0 0 1 -15.36,17.21 c -9.88,7.13 -23.54,11 -38.28,11 q -3.64,0 -7.37,-0.31 c -21,-1.83 -33.63,-12.81 -34.77,-30.14 a 46.28,46.28 0 0 1 0,-7.49 c 1.46,-15.27 8.95,-29.61 20.06,-38.35 13.41,-10.58 31.81,-15.32 50.49,-13 18.68,2.32 31.26,14.19 32.78,31 l 0.15,1.74 -31.71,3.36 -0.08,-1.89 a 13.32,13.32 0 0 0 -1.67,-6.42 c -2,-3.11 -5.6,-4.63 -11.11,-4.63 a 21.37,21.37 0 0 0 -14.91,5.38 c -4.16,3.57 -7,8.8 -8.85,16 -1.81,6.66 -1.6,11.79 0.65,15.26 1.95,3.15 5.58,4.67 11.13,4.67 a 21.33,21.33 0 0 0 14.91,-5.37 24.09,24.09 0 0 0 4.61,-5.61 z"
     class="cls-1" />
  <path
     id="path12"
     d="m 411.4063,165.09 -34.71,-0.07 25,-89.07 h 34.24 l -3.8,14.22 c 4.94,-5.82 14.18,-14.06 29.84,-14.23 h 0.17 c 1,0 9,0 10.24,0.06 0,0 -12,37 -12,36.71 0.23,-13.55 -10.08,-12.87 -12.27,-13.05 h -0.25 c -10.76,-0.21 -16.52,5.73 -19.8,10.86 a 33.89,33.89 0 0 0 -3.59,8.2 l -0.08,0.25 c -0.35,1 -1,3.42 -1.5,5 -0.24,0.82 -0.42,1.46 -0.5,1.69 z"
     class="cls-1" />
  <path
     id="path14"
     d="m 383.5563,90.11 c -4.17,-5.1 -10.67,-11.43 -26.19,-13.93 -18.67,-2.28 -37.07,2.46 -50.48,13 -11.06,8.71 -18.55,23 -20,38.21 -1.64,19 10,34.94 34.59,37.33 15.12,1.26 33.79,-1.94 45.61,-10.64 a 57.19,57.19 0 0 0 22.58,-37.8 c 1.48,-9.72 -0.68,-19.02 -6.11,-26.17 z m -49.88,50.8 c -5.7,0 -9.46,-1.58 -11.5,-4.85 -2.31,-3.59 -2.54,-8.82 -0.69,-15.58 1.83,-7.31 4.77,-12.62 9,-16.26 a 21.9,21.9 0 0 1 15.23,-5.44 c 5.67,0 9.43,1.58 11.47,4.81 1.89,3.42 2.23,10 0.63,15.57 -1.72,7.09 -4.72,12.57 -8.91,16.3 a 21.86,21.86 0 0 1 -15.23,5.45 z"
     class="cls-1" />
  <path
     id="path16"
     d="m 253.3363,164.93 h -34.92 l 26,-89.43 h -35.85 l 6.43,-23.46 104.75,0.2 -5.68,23.38 h -35.74 z"
     class="cls-1" />
  <path
     id="path18"
     d="m 782.0763,165.15 -34.71,-0.07 25,-89.07 h 34.24 l -3.8,14.22 c 4.94,-5.82 14.19,-14.07 29.84,-14.24 h 0.18 c 1,0 8.3,0 9.52,0.06 0,0 -11.27,37 -11.26,36.71 0.23,-13.54 -10.08,-12.87 -12.26,-13 h -0.26 c -10.76,-0.21 -16.52,5.72 -19.8,10.86 a 33.81,33.81 0 0 0 -3.6,8.16 l -0.08,0.25 c -0.35,1 -1,3.43 -1.5,5 -0.24,0.82 -0.42,1.46 -0.49,1.69 z"
     class="cls-1" />
  <path
     id="path20"
     d="m 69.926297,0 c 0,0 15.6,23.45 32.140003,50.66 8.73,16.32 2.37,35.67 -8.880003,51.73 -7.15,10.21 -15.61,19.19 -21.57,25.51 v 0 c -25.12,25.54 -28.74,38.05 -32.09,57.65 l -2.26,14.45 c 0,0 -16.11,-25.92 -32.6500004,-53.11 C -11.923703,119.7 20.136297,87.34 35.476297,71.07 v 0 c 24.88,-27.43 30.29,-36.46 33.65,-56.09 z"
     class="cls-1" />
  <path
     id="path22"
     d="m 119.5163,46.39 c 0,0 12.75,16.58 26.18,38.63 13.43,22.05 -2.83,42.31 -15.27,55.49 v 0 c -20.12,22.25 -23.29,29.81 -26,45.7 l -1.81,11.73 A 347.78,347.78 0 0 1 78.466297,161.16 c -8.69,-15.08 -4.05,-32.42 4.46,-45.3 5.44,-8.25 12.08,-15.37 16.94,-20.51 v 0 C 120.0463,75.78 122.4963,62.9 119.5163,46.39 Z"
     class="cls-1" />
</svg>
