<svg id="Layer_1" data-name="Layer 1" xmlns="http://www.w3.org/2000/svg" viewBox="0 0 300 38.73"><defs><style>.cls-1{fill:#f00;}.cls-2{fill:#fff;}</style></defs><path class="cls-1" d="M178.36,9.16c-11.78,4.15-17.19,4.11-23.27,1.38-10.57-3.7-16.94.54-23.17,2.13,5.59-4.7,15.74-7.87,26.83-6.49C170.48,7.67,177.17-1,192.52.1c7.87.89,14.8,5.29,20.1,7.62s11.19.74,18.27-.89c11.75-3.5,14.7-4.9,24.7-1.39C260,7.32,273.76,14.55,283.91,13c4.9-.75,8.37-2.78,16.09-2-14.11,1.28-14.35,9.43-34.79,5-23.29-8-26.88-3.57-27.94-.22-1.24,4.36,5.65,8.42,14.31,4.75,4.26-1.78,7.28-2.32,10.35-1.28,3.65,1.22,4.84,2.25,9.95.34-3.71,2-3.62,2.63-8.42,2.33-4.11-.25-8,.37-9.5,4.16s-3.91,7.28-11.84,7.28c-8.66,0-14.6-4.56-23.07-2.38,1.14-2.77,4-4.26,8.22-4.7,9.36-1.64-14.51-5.79-22.5-8.5S190.13,5,178.36,9.16Z"/><path class="cls-1" d="M186.3,31.07c-18.1-3.3-21.85-1.94-31.14,1.93-15.89,6.53-34.86,6.29-44.06-.52S88.51,22.82,87.48,27.3s3.88,7.13,9,7.88,6.6,1,16.29-1.76C101.85,39.11,93.87,39.5,84.07,38s-15-4.26-17.73-9.76c11.49,4.56,18-1.48,5.4-6.78-11.78-5.59-25.4.45-37.58,3.32C19.7,28.74,8.47,26.36,0,18.44c12.28,9,26.34,5,47.08-2.52,24.81-9.21,44.17-7.08,64.37,3.61,13,7.06,24.51,11.25,36.58,9.16,13.82-3.32,26.54-2.43,38.27,2.38"/><path class="cls-2" d="M96.38,20.52l5.86-.06a1.49,1.49,0,0,0,.91,1.29,14.44,14.44,0,0,0,4.95.54,21.29,21.29,0,0,0,4.35-.32c.92-.22,1.35-.54,1.4-.86s-.32-.54-1.08-.75a34,34,0,0,0-4.19-.76c-2.31-.37-4-.64-5-.86a7.07,7.07,0,0,1-2.47-.91,1.55,1.55,0,0,1-.86-1.29c.06-.86,1-1.5,2.85-2.1a28.47,28.47,0,0,1,8-.75,30.38,30.38,0,0,1,8.07.86c1.88.54,2.9,1.29,3.06,2.21l-5.86,0c-.11-.48-.64-.86-1.5-1.13a15.76,15.76,0,0,0-3.87-.43,18.82,18.82,0,0,0-3.66.27c-.75.21-1.13.43-1.13.75s.33.54,1,.7a34.62,34.62,0,0,0,4.35.81A53.54,53.54,0,0,1,118,19c1.39.49,2,1.08,2,1.78-.06.86-1.13,1.61-3.23,2.25a31.45,31.45,0,0,1-8.76.86,40.06,40.06,0,0,1-6.66-.48,10.12,10.12,0,0,1-3.93-1.24A1.74,1.74,0,0,1,96.38,20.52Z"/><path class="cls-1" d="M108.8,24.28H108a41,41,0,0,1-6.73-.48,10.45,10.45,0,0,1-4.07-1.3,2.1,2.1,0,0,1-1.18-2l0-.34,6.54-.06,0,.34a1.12,1.12,0,0,0,.71,1,14.38,14.38,0,0,0,4.78.5,21.37,21.37,0,0,0,4.27-.31c.75-.18,1-.41,1.09-.52a1.57,1.57,0,0,0-.79-.38,37.72,37.72,0,0,0-4.14-.74l-.31,0c-2.16-.35-3.73-.61-4.71-.81a7.68,7.68,0,0,1-2.6-1,1.89,1.89,0,0,1-1-1.6c.08-1.33,1.71-2,3.11-2.45a28.76,28.76,0,0,1,8.07-.77,30.89,30.89,0,0,1,8.16.87c2,.58,3.13,1.42,3.33,2.5l.07.43-6.6.06-.06-.29c-.07-.32-.52-.63-1.25-.86a15.52,15.52,0,0,0-3.77-.41,18.73,18.73,0,0,0-3.57.26c-.81.23-.83.39-.83.39s.16.21.68.34a33.29,33.29,0,0,0,4.32.8,53.08,53.08,0,0,1,6.57,1.25c1.57.55,2.31,1.25,2.24,2.15s-1.21,1.89-3.49,2.59A30.85,30.85,0,0,1,108.8,24.28Zm-12-3.4a1.51,1.51,0,0,0,.82,1,9.7,9.7,0,0,0,3.8,1.19,38.43,38.43,0,0,0,6.6.48,31.55,31.55,0,0,0,8.66-.84c2.39-.74,2.93-1.46,3-1.93,0-.64-.92-1.11-1.74-1.4a54.73,54.73,0,0,0-6.44-1.22,30.24,30.24,0,0,1-4.42-.82c-1.05-.26-1.22-.77-1.22-1.05,0-.62.68-.9,1.4-1.11a19,19,0,0,1,3.76-.28,15.4,15.4,0,0,1,4,.45,2.58,2.58,0,0,1,1.65,1.11l5.06-.05A4.55,4.55,0,0,0,119,14.91a30.12,30.12,0,0,0-8-.85,27.85,27.85,0,0,0-7.85.74c-1.72.54-2.55,1.1-2.59,1.76q0,.51.69,1a6.92,6.92,0,0,0,2.35.86c1,.2,2.52.46,4.68.81l.3,0a34.73,34.73,0,0,1,4.25.76c.88.25,1.33.63,1.33,1.11v.06c-.09.53-.66.92-1.68,1.16a21.42,21.42,0,0,1-4.44.33,14.36,14.36,0,0,1-5.09-.57,1.85,1.85,0,0,1-1.08-1.25Z"/><path class="cls-2" d="M131.42,24.42l-6.12-.05,5.59-8.28L122.13,16l1.12-1.67,23.49.16-1.13,1.67-8.6-.06Z"/><path class="cls-1" d="M131.62,24.79l-7-.06,5.59-8.27-8.76-.06,1.63-2.4,24.38.16-1.63,2.41-8.6-.05ZM126,24l5.24.05,5.59-8.28,8.59.05.63-.92-22.59-.16-.63.93,8.76.05Z"/><path class="cls-2" d="M142.33,24.42,149,14.48l22.08.16L170,16.3l-16-.1-1.5,2.25,15.42.11-1.12,1.67-15.43-.11-2,2.69,17.36.1-1.13,1.67Z"/><path class="cls-1" d="M165.8,25l-24.16-.16L148.8,14.1l23,.17-1.63,2.41-16-.11-1,1.52,15.43.1L167,20.6l-15.43-.11-1.44,2,17.32.11ZM143,24.05l22.38.16.62-.93-17.39-.11,2.54-3.42,15.41.1.63-.92-15.42-.11,2-3,16,.11.63-.93-21.2-.15Z"/><path class="cls-1" d="M191.17,25h-5.48l3.4-5.44-6.2,5.39H176.4l.13-6.8-4.71,6.74h-5.27l7.57-10.73h7.71l-.05,6.62,7.27-6.57h9.45ZM187,24.21h3.74l6.32-9.31h-7.75L181,22.41l.05-7.56H174.5L168,24.1h3.45l5.88-8.42-.15,8.48h5.46l9.75-8.48Z"/><path class="cls-2" d="M194.35,21.19l5.86-.05a1.48,1.48,0,0,0,.92,1.29,14.37,14.37,0,0,0,4.94.54,21.29,21.29,0,0,0,4.35-.32c.92-.22,1.35-.54,1.4-.86s-.32-.54-1.07-.76a35.7,35.7,0,0,0-4.2-.75c-2.31-.38-4-.64-5-.86a7.34,7.34,0,0,1-2.48-.91,1.55,1.55,0,0,1-.86-1.29c.06-.86,1-1.51,2.85-2.1a28.13,28.13,0,0,1,8-.75,30.45,30.45,0,0,1,8.06.86c1.88.54,2.9,1.29,3.06,2.2l-5.86.06c-.1-.49-.64-.86-1.5-1.13a15.76,15.76,0,0,0-3.87-.43,18.82,18.82,0,0,0-3.66.27c-.75.21-1.12.43-1.12.75s.32.54,1,.7a33.31,33.31,0,0,0,4.36.8,54.58,54.58,0,0,1,6.5,1.24c1.4.48,2,1.07,2,1.77-.06.86-1.13,1.62-3.23,2.26a31.83,31.83,0,0,1-8.76.86,40.06,40.06,0,0,1-6.66-.48,10.17,10.17,0,0,1-3.92-1.24A1.59,1.59,0,0,1,194.35,21.19Z"/><path class="cls-1" d="M206.77,25H206a39.83,39.83,0,0,1-6.72-.49,10.18,10.18,0,0,1-4.08-1.3,1.87,1.87,0,0,1-1.17-2l0-.3,6.51-.06,0,.34a1.12,1.12,0,0,0,.71,1,14.38,14.38,0,0,0,4.78.5,20.46,20.46,0,0,0,4.27-.32c.76-.17,1-.4,1.1-.51a1.71,1.71,0,0,0-.8-.38,35.31,35.31,0,0,0-4.14-.74l-.36-.06c-2.14-.35-3.68-.6-4.66-.81a7.47,7.47,0,0,1-2.6-1,1.91,1.91,0,0,1-1-1.6c.09-1.34,1.71-2,3.11-2.45A28,28,0,0,1,209,14a30.89,30.89,0,0,1,8.16.87c2,.58,3.14,1.42,3.33,2.5l.07.43-6.59.06-.07-.29c-.07-.32-.52-.63-1.25-.86a15.52,15.52,0,0,0-3.77-.41,18.73,18.73,0,0,0-3.57.26c-.81.23-.83.39-.83.39s.16.21.68.34a33.29,33.29,0,0,0,4.32.8,51.12,51.12,0,0,1,6.57,1.25c1.58.54,2.31,1.25,2.24,2.15s-1.21,1.88-3.49,2.59A30.8,30.8,0,0,1,206.77,25Zm-12.05-3.4a1.37,1.37,0,0,0,.83,1,9.79,9.79,0,0,0,3.81,1.2,39.46,39.46,0,0,0,6.6.48,31.11,31.11,0,0,0,8.66-.85c2.39-.73,2.93-1.45,3-1.92,0-.64-.92-1.12-1.74-1.4a54.73,54.73,0,0,0-6.44-1.22A32.77,32.77,0,0,1,205,18c-1.06-.26-1.23-.77-1.23-1.05,0-.63.68-.9,1.4-1.11a19,19,0,0,1,3.76-.28,16,16,0,0,1,4,.44,2.62,2.62,0,0,1,1.65,1.11l5.06,0A4.5,4.5,0,0,0,217,15.59a30.31,30.31,0,0,0-8-.85,27.94,27.94,0,0,0-7.85.74c-1.72.54-2.54,1.1-2.59,1.76a1.22,1.22,0,0,0,.69,1,6.92,6.92,0,0,0,2.35.87c1,.2,2.5.45,4.63.8l.35.05a34.79,34.79,0,0,1,4.25.77c.88.25,1.33.62,1.33,1.11v.06c-.06.36-.4.86-1.68,1.16a21.36,21.36,0,0,1-4.44.33,14.36,14.36,0,0,1-5.09-.57,1.85,1.85,0,0,1-1.08-1.25Z"/></svg>
